<?xml version="1.0" encoding="UTF-8"?>
<svg xmlns="http://www.w3.org/2000/svg" xmlns:xlink="http://www.w3.org/1999/xlink" viewBox="0 0 150 150" width="150px" height="150px">
<g id="surface23738031">
<path style=" stroke:none;fill-rule:nonzero;fill:rgb(100%,100%,100%);fill-opacity:1;" d="M 46.28125 9 C 42.1875 9 38.578125 11.796875 37.5625 15.769531 L 36.222656 21 L 36 21 C 33.402344 21 31.03125 21.878906 29.289062 23.367188 C 27.550781 24.855469 26.445312 26.8125 25.699219 28.875 C 24.207031 32.996094 24 37.734375 24 42 C 24 43.65625 25.34375 45 27 45 L 30.355469 45 L 41.910156 135.054688 C 41.914062 135.078125 41.917969 135.105469 41.921875 135.128906 C 42.480469 138.714844 45.613281 141 49.101562 141 L 100.890625 141 C 104.382812 141 107.511719 138.707031 108.070312 135.128906 C 108.074219 135.105469 108.078125 135.078125 108.082031 135.054688 L 119.640625 45 L 123 45 C 124.65625 45 126 43.65625 126 42 C 126 37.734375 125.792969 32.996094 124.300781 28.875 C 123.554688 26.8125 122.449219 24.855469 120.707031 23.367188 C 118.96875 21.878906 116.597656 21 114 21 L 113.71875 21 L 112.421875 15.820312 C 112.421875 15.820312 112.421875 15.816406 112.421875 15.816406 C 111.425781 11.824219 107.804688 9 103.6875 9 Z M 46.28125 15 L 103.6875 15 C 105.078125 15 106.261719 15.921875 106.597656 17.273438 L 107.53125 21 L 42.414062 21 L 43.375 17.253906 C 43.71875 15.917969 44.898438 15 46.28125 15 Z M 38.738281 26.988281 C 38.824219 26.996094 38.910156 27 39 27 L 111 27 C 111.066406 27 111.128906 27 111.191406 26.996094 C 111.253906 26.996094 111.3125 27 111.375 27 L 114 27 C 115.378906 27 116.117188 27.332031 116.8125 27.925781 C 117.507812 28.519531 118.15625 29.515625 118.664062 30.917969 C 119.40625 32.96875 119.488281 36.066406 119.636719 39 L 33.5 39 C 33.289062 38.964844 33.078125 38.949219 32.867188 38.960938 C 32.746094 38.964844 32.625 38.980469 32.507812 39 L 30.363281 39 C 30.511719 36.066406 30.59375 32.96875 31.335938 30.917969 C 31.84375 29.515625 32.492188 28.519531 33.1875 27.925781 C 33.882812 27.332031 34.621094 27 36 27 L 38.550781 27 C 38.613281 27 38.675781 26.996094 38.738281 26.988281 Z M 36.410156 45 L 113.589844 45 L 110.125 72 L 95.953125 72 C 91.980469 63.257812 84.285156 57.035156 74.976562 57.011719 C 74.839844 57.007812 74.707031 57.015625 74.570312 57.023438 C 65.359375 57.179688 57.835938 63.367188 53.964844 72 L 39.871094 72 Z M 74.835938 62.996094 C 74.898438 62.996094 74.84375 63 74.925781 63 C 82.179688 63 88.421875 68.046875 91.351562 76.03125 C 91.785156 77.210938 92.910156 77.996094 94.164062 78 L 109.351562 78 L 107.433594 93 L 94.167969 93 C 92.902344 93 91.773438 93.792969 91.34375 94.980469 C 90.683594 96.808594 89.929688 98.488281 89.015625 99.890625 C 85.617188 105.101562 80.652344 107.929688 75.265625 107.996094 L 75.066406 107.996094 C 69.738281 107.996094 64.777344 105.289062 61.296875 100.195312 C 61.296875 100.195312 61.296875 100.191406 61.296875 100.191406 C 60.277344 98.699219 59.4375 96.917969 58.722656 94.96875 C 58.289062 93.785156 57.164062 93 55.90625 93 L 42.570312 93 L 40.648438 78 L 55.769531 78 C 57.03125 78 58.160156 77.207031 58.589844 76.019531 C 61.433594 68.125 67.535156 63.082031 74.753906 63 C 74.78125 63 74.808594 62.996094 74.835938 62.996094 Z M 74.816406 69 C 71.113281 69.039062 67.996094 71.332031 66.003906 74.382812 C 64.015625 77.4375 62.9375 81.359375 62.980469 85.628906 C 63.027344 89.898438 64.195312 93.800781 66.25 96.808594 C 68.308594 99.816406 71.476562 102.039062 75.179688 102 C 78.886719 101.960938 82.003906 99.667969 83.992188 96.617188 C 85.984375 93.5625 87.0625 89.640625 87.015625 85.371094 C 86.972656 81.101562 85.804688 77.199219 83.746094 74.191406 C 81.691406 71.183594 78.523438 68.960938 74.816406 69 Z M 74.882812 75 C 76.160156 74.984375 77.53125 75.734375 78.789062 77.578125 C 80.050781 79.421875 80.984375 82.25 81.019531 85.4375 C 81.050781 88.621094 80.1875 91.46875 78.96875 93.339844 C 77.746094 95.210938 76.390625 95.984375 75.117188 96 C 73.84375 96.015625 72.46875 95.265625 71.210938 93.421875 C 69.949219 91.578125 69.015625 88.75 68.984375 85.566406 C 68.949219 82.378906 69.8125 79.53125 71.035156 77.660156 C 72.253906 75.789062 73.609375 75.015625 74.882812 75 Z M 43.335938 99 L 54.0625 99 C 54.738281 100.558594 55.363281 102.140625 56.34375 103.574219 C 60.792969 110.085938 67.660156 113.996094 75.0625 113.996094 L 75.273438 113.996094 C 75.285156 113.996094 75.292969 113.996094 75.304688 113.996094 C 82.804688 113.914062 89.683594 109.84375 94.035156 103.171875 C 94.039062 103.171875 94.039062 103.171875 94.042969 103.171875 C 94.90625 101.847656 95.445312 100.414062 96.039062 99 L 106.664062 99 L 102.148438 134.210938 C 102.128906 134.332031 101.484375 135 100.890625 135 L 49.101562 135 C 48.523438 135 47.871094 134.328125 47.851562 134.210938 Z M 43.335938 99 "/>
</g>
</svg>
