<?xml version="1.0" encoding="UTF-8"?>
<svg xmlns="http://www.w3.org/2000/svg" xmlns:xlink="http://www.w3.org/1999/xlink" viewBox="0 0 128 128" width="128px" height="128px">
<g id="surface23011096">
<path style=" stroke:none;fill-rule:nonzero;fill:rgb(100%,100%,100%);fill-opacity:1;" d="M 8 28 L 8 100 L 120 100 L 120 28 Z M 16 36 L 112 36 L 112 92 L 16 92 Z M 24 44 L 24 84 L 36 84 C 42.617188 84 48 78.617188 48 72 L 48 56 C 48 49.382812 42.617188 44 36 44 Z M 64 44 C 59.589844 44 56 47.589844 56 52 L 56 76 C 56 80.410156 59.589844 84 64 84 L 72 84 L 72 76 L 64 76 L 64 68 L 72 68 L 72 60 L 64 60 L 64 52 L 72 52 L 72 44 Z M 78.765625 44 L 87.101562 80.101562 C 87.628906 82.382812 89.660156 84 92 84 C 94.339844 84 96.371094 82.382812 96.898438 80.101562 L 105.234375 44 L 97.023438 44 L 92 65.757812 L 86.976562 44 Z M 32 52 L 36 52 C 38.207031 52 40 53.792969 40 56 L 40 72 C 40 74.207031 38.207031 76 36 76 L 32 76 Z M 32 52 "/>
</g>
</svg>
