<?xml version="1.0" encoding="UTF-8"?>
<svg xmlns="http://www.w3.org/2000/svg" xmlns:xlink="http://www.w3.org/1999/xlink" viewBox="0 0 150 150" width="150px" height="150px">
<g id="surface23599096">
<path style=" stroke:none;fill-rule:nonzero;fill:rgb(100%,100%,100%);fill-opacity:1;" d="M 140.378906 66.269531 L 83.730469 9.621094 C 81.328125 7.207031 78.164062 6 75 6 C 71.835938 6 68.671875 7.207031 66.269531 9.621094 L 55.066406 20.824219 L 68.929688 34.6875 C 73.535156 31.980469 79.535156 32.566406 83.484375 36.515625 C 87.433594 40.464844 88.007812 46.464844 85.300781 51.058594 L 98.929688 64.6875 C 103.535156 61.980469 109.535156 62.566406 113.484375 66.515625 C 118.171875 71.203125 118.171875 78.796875 113.484375 83.484375 C 108.796875 88.171875 101.203125 88.171875 96.515625 83.484375 C 92.566406 79.535156 91.980469 73.535156 94.6875 68.929688 L 81.058594 55.300781 C 80.085938 55.875 79.066406 56.296875 78 56.566406 L 78 93.421875 C 83.167969 94.757812 87 99.410156 87 105 C 87 111.632812 81.632812 117 75 117 C 68.367188 117 63 111.632812 63 105 C 63 99.410156 66.832031 94.757812 72 93.421875 L 72 56.566406 C 69.996094 56.050781 68.085938 55.054688 66.515625 53.484375 C 62.566406 49.535156 61.992188 43.535156 64.699219 38.941406 L 50.824219 25.066406 L 9.621094 66.269531 C 4.792969 71.085938 4.792969 78.914062 9.621094 83.730469 L 66.269531 140.378906 C 68.671875 142.792969 71.835938 144 75 144 C 78.164062 144 81.328125 142.792969 83.730469 140.378906 L 140.378906 83.730469 C 145.207031 78.914062 145.207031 71.085938 140.378906 66.269531 Z M 140.378906 66.269531 "/>
</g>
</svg>
