<?xml version="1.0" encoding="UTF-8"?>
<svg xmlns="http://www.w3.org/2000/svg" xmlns:xlink="http://www.w3.org/1999/xlink" viewBox="0 0 150 150" width="150px" height="150px">
<g id="surface23063572">
<path style=" stroke:none;fill-rule:nonzero;fill:rgb(100%,100%,100%);fill-opacity:1;" d="M 21 6 L 21 144 L 129 144 L 129 46.230469 L 87.550781 6 Z M 27 12 L 84 12 L 84 51 L 123 51 L 123 138 L 27 138 Z M 90 16.734375 L 119.121094 45 L 90 45 Z M 71.308594 59.625 C 69.058594 59.625 66.726562 60.902344 65.707031 62.800781 C 64.675781 64.6875 64.605469 66.714844 64.863281 68.824219 C 65.261719 72.152344 66.773438 75.914062 68.730469 79.769531 C 67.757812 83.050781 67.289062 85.910156 65.824219 89.414062 C 63.960938 93.878906 61.675781 97.417969 59.484375 101.132812 C 56.625 102.46875 53.015625 103.664062 50.90625 105.046875 C 48.539062 106.605469 46.664062 108 45.5625 110.214844 C 45.023438 111.316406 44.742188 112.886719 45.28125 114.304688 C 45.820312 115.722656 46.945312 116.648438 48.105469 117.246094 C 50.566406 118.546875 53.402344 117.738281 55.453125 116.355469 C 57.503906 114.972656 59.332031 112.945312 61.171875 110.472656 C 62.097656 109.21875 62.835938 107.191406 63.75 105.726562 C 66.691406 104.425781 68.777344 103.078125 72.117188 101.929688 C 76.628906 100.371094 80.648438 99.714844 84.867188 98.800781 C 88.394531 101.179688 92.144531 103.03125 96.246094 103.03125 C 98.566406 103.03125 100.359375 102.925781 102.105469 101.976562 C 103.863281 101.027344 104.917969 98.742188 104.917969 96.996094 C 104.917969 95.578125 104.296875 94.066406 103.3125 93.09375 C 102.316406 92.121094 101.144531 91.605469 99.9375 91.277344 C 97.546875 90.632812 94.828125 90.679688 91.699219 90.996094 C 90.046875 91.171875 87.832031 92.050781 85.992188 92.390625 C 85.746094 92.203125 85.511719 92.121094 85.265625 91.910156 C 81.527344 88.6875 78.023438 84.234375 75.421875 79.804688 C 75.269531 79.535156 75.292969 79.347656 75.140625 79.078125 C 75.773438 76.710938 77.015625 73.957031 77.296875 71.882812 C 77.683594 69.011719 77.765625 66.503906 77.074219 64.207031 C 76.722656 63.058594 76.136719 61.898438 75.117188 61.007812 C 74.097656 60.117188 72.65625 59.625 71.308594 59.625 Z M 71.0625 65.601562 C 71.097656 65.601562 71.15625 65.625 71.203125 65.636719 C 71.214844 65.660156 71.238281 65.648438 71.332031 65.941406 C 71.496094 66.492188 71.402344 68.050781 71.34375 69.433594 C 71.273438 69.082031 70.863281 68.425781 70.828125 68.109375 C 70.652344 66.714844 70.875 65.824219 70.96875 65.671875 C 70.992188 65.613281 71.027344 65.601562 71.0625 65.601562 Z M 72.878906 86.648438 C 74.730469 89.308594 76.78125 91.792969 79.078125 94.078125 C 76.007812 94.898438 73.253906 95.191406 70.160156 96.257812 C 69.503906 96.480469 69.128906 96.796875 68.484375 97.03125 C 69.398438 95.121094 70.535156 93.703125 71.355469 91.734375 C 72.105469 89.941406 72.234375 88.429688 72.878906 86.648438 Z M 72.878906 86.648438 "/>
</g>
</svg>
