<?xml version="1.0" standalone="no"?>
<!DOCTYPE svg PUBLIC "-//W3C//DTD SVG 20010904//EN"
 "http://www.w3.org/TR/2001/REC-SVG-20010904/DTD/svg10.dtd">
<svg version="1.0" xmlns="http://www.w3.org/2000/svg"
 width="320.000000pt" height="320.000000pt" viewBox="0 0 320.000000 320.000000"
 preserveAspectRatio="xMidYMid meet">
<metadata>
Created by potrace 1.14, written by Peter Selinger 2001-2017
</metadata>
<g transform="translate(0.000000,320.000000) scale(0.100000,-0.100000)"
fill="#000000" stroke="none">
<path d="M1202 3079 c-70 -27 -144 -102 -170 -171 -15 -38 -20 -73 -18 -123 6
-211 208 -350 406 -280 168 59 244 236 179 411 -25 66 -104 141 -175 167 -65
23 -155 21 -222 -4z"/>
<path d="M2091 2373 c-39 -76 -84 -161 -100 -190 l-31 -52 83 49 c45 28 132
71 192 96 61 26 118 51 128 56 14 7 1 21 -80 86 -54 43 -104 81 -110 85 -9 6
-34 -35 -82 -130z"/>
<path d="M1507 2444 c-2 -1 -74 -9 -207 -20 -36 -4 -67 -8 -68 -9 -3 -3 3 -36
23 -125 0 -3 5 -27 10 -55 4 -27 9 -54 11 -60 1 -5 12 -68 24 -140 11 -71 23
-141 26 -155 3 -14 7 -92 9 -175 3 -138 1 -178 -20 -289 l-8 -38 54 6 c132 16
133 16 173 168 48 180 62 340 70 761 l3 138 -49 -2 c-26 -2 -49 -3 -51 -5z"/>
<path d="M2699 2386 c-2 -2 -27 -6 -55 -9 -61 -6 -204 -53 -334 -109 -107 -47
-391 -190 -424 -214 -26 -20 -33 -23 219 79 240 96 437 164 510 175 105 17
236 -3 255 -38 15 -29 -16 -83 -86 -152 -75 -73 -117 -104 -294 -221 -519
-340 -1070 -583 -1552 -682 -117 -24 -189 -30 -363 -30 -237 1 -304 30 -261
113 33 64 209 217 373 322 29 19 51 36 49 38 -5 4 -135 -65 -225 -120 -140
-86 -255 -191 -266 -245 -4 -15 -9 -34 -11 -41 -2 -8 3 -29 12 -48 32 -66 161
-104 365 -107 95 -1 286 10 299 18 3 1 28 6 55 9 140 18 466 113 665 194 14 6
50 20 80 32 82 33 390 189 505 255 271 157 526 336 633 446 172 176 140 317
-75 333 -39 3 -72 4 -74 2z"/>
<path d="M2455 2225 c-22 -7 -97 -32 -167 -54 -70 -22 -183 -65 -251 -95
l-125 -56 -160 -160 c-88 -88 -159 -160 -158 -160 24 0 348 120 403 150 131
70 529 362 518 380 -7 12 -10 12 -60 -5z"/>
<path d="M1059 1977 c-30 -29 -85 -79 -120 -112 -57 -53 -100 -117 -87 -130
11 -11 78 18 114 50 l39 35 3 -25 c5 -35 43 -59 81 -50 32 7 80 56 82 83 4 54
-11 82 -44 82 -19 0 -19 2 7 29 23 23 26 33 17 48 -24 45 -34 44 -92 -10z"/>
<path d="M1586 1625 c3 -22 8 -48 10 -58 2 -10 5 -26 8 -35 2 -9 7 -29 10 -45
l6 -27 37 15 c20 9 39 17 41 19 3 4 -87 135 -110 161 -6 6 -7 -6 -2 -30z"/>
<path d="M1747 1334 l-68 -34 17 -32 c44 -87 214 -281 320 -365 l40 -32 85
169 84 168 -40 12 c-87 26 -227 82 -285 115 -34 19 -67 35 -73 34 -7 -1 -43
-16 -80 -35z"/>
<path d="M1283 1172 l-62 -17 -70 -105 c-38 -58 -107 -150 -152 -205 -91 -109
-84 -107 73 22 87 72 254 245 281 292 21 36 20 36 -70 13z"/>
<path d="M1963 373 c-10 -3 -13 -37 -13 -119 0 -95 3 -114 15 -114 15 0 17 3
19 42 2 36 30 32 60 -7 15 -19 34 -35 42 -35 20 0 18 7 -16 50 -16 21 -30 42
-30 46 0 4 16 25 36 45 34 35 35 36 10 32 -14 -3 -36 -15 -48 -27 -57 -53 -57
-53 -56 18 1 71 0 76 -19 69z"/>
<path d="M865 258 c0 -79 4 -113 13 -116 6 -2 12 0 13 5 1 4 2 20 3 35 3 27
22 58 35 58 4 0 24 -22 45 -50 23 -30 46 -50 58 -50 17 0 12 10 -30 64 l-50
64 51 51 c47 48 49 51 25 51 -17 0 -38 -16 -73 -55 -26 -30 -50 -55 -54 -55
-3 0 -6 25 -5 55 1 44 -2 55 -16 55 -14 0 -16 -15 -15 -112z"/>
<path d="M1455 258 l0 -113 78 -2 c61 -2 77 1 77 12 0 10 -17 15 -62 17 l-62
3 -1 33 c-2 34 5 37 78 32 20 -1 27 3 27 17 0 15 -8 18 -52 18 -52 0 -53 0
-53 30 0 30 0 30 63 33 46 2 62 7 62 17 0 12 -16 15 -78 15 l-78 0 1 -112z"/>
<path d="M1074 308 c-52 -24 -62 -108 -19 -145 33 -29 74 -29 110 -1 24 19 25
22 10 31 -13 7 -20 5 -27 -7 -12 -21 -52 -20 -74 2 -17 16 -15 17 49 20 66 3
67 3 67 31 0 25 -30 70 -48 72 -4 0 -16 2 -27 4 -11 2 -30 -1 -41 -7z m64 -34
c33 -23 27 -31 -23 -31 -54 0 -64 10 -33 31 28 20 28 20 56 0z"/>
<path d="M1286 313 c-2 -3 -21 -5 -40 -5 -20 0 -36 -4 -37 -9 0 -5 -1 -36 -1
-69 0 -87 1 -90 17 -90 11 0 14 12 13 54 -2 57 9 80 42 89 24 6 42 -22 40 -61
-4 -59 0 -82 15 -82 12 0 15 13 15 59 0 72 -12 107 -39 114 -11 2 -22 3 -25 0z"/>
<path d="M1632 311 c-17 -10 -11 -133 7 -155 15 -18 72 -21 88 -5 8 8 13 8 17
0 18 -28 25 -4 25 75 0 74 -2 85 -17 82 -13 -3 -16 -13 -14 -47 3 -50 -18 -91
-48 -91 -27 0 -34 16 -40 87 -4 48 -8 61 -18 54z"/>
<path d="M1829 305 c-75 -41 -47 -165 38 -165 39 0 82 35 64 53 -7 7 -16 6
-29 -6 -35 -32 -73 -19 -84 30 -12 47 48 87 82 53 11 -11 22 -15 31 -9 11 7
10 12 -7 29 -26 27 -62 32 -95 15z"/>
<path d="M2133 307 c-28 -12 -52 -63 -47 -96 10 -61 88 -90 135 -52 20 16 22
22 11 33 -11 11 -15 10 -23 -4 -6 -10 -21 -18 -34 -18 -13 0 -31 8 -41 18 -17
16 -15 17 49 20 66 3 67 3 67 31 0 28 -31 70 -53 72 -7 0 -19 2 -27 3 -8 2
-25 -1 -37 -7z m65 -33 c31 -21 21 -31 -33 -32 -50 -1 -57 9 -23 32 28 20 28
20 56 0z"/>
<path d="M2265 227 c0 -55 4 -82 13 -84 13 -5 13 -6 16 59 3 50 16 73 47 83
35 12 19 25 -29 24 l-47 -2 0 -80z"/>
</g>
</svg>
