<?xml version="1.0" encoding="UTF-8"?>
<svg xmlns="http://www.w3.org/2000/svg" xmlns:xlink="http://www.w3.org/1999/xlink" viewBox="0 0 192 192" width="192px" height="192px">
<g id="surface23534874">
<path style=" stroke:none;fill-rule:nonzero;fill:rgb(100%,100%,100%);fill-opacity:1;" d="M 41.28125 192 C 18.480469 192 0 173.519531 0 150.71875 L 0 41.28125 C 0 18.480469 18.480469 0 41.28125 0 L 150.71875 0 C 173.519531 0 192 18.480469 192 41.28125 L 192 150.71875 C 192 173.519531 173.519531 192 150.71875 192 Z M 41.28125 192 "/>
<path style=" stroke:none;fill-rule:nonzero;fill:rgb(15.686275%,19.607843%,30.588236%);fill-opacity:1;" d="M 25.113281 31.214844 C 15.351562 34.910156 10.070312 38.0625 10.070312 42.785156 C 10.625 48.136719 19.34375 53.496094 37.183594 57.585938 C 53.976562 61.753906 75.417969 63.878906 101.257812 63.878906 C 127.648438 63.878906 148.601562 61.753906 165.320312 57.585938 C 183.152344 53.496094 191.710938 47.976562 191.710938 42.785156 C 191.710938 39.078125 187.878906 35.464844 180.910156 32.710938 C 182.511719 33.734375 183.710938 35.464844 183.710938 37.359375 C 183.710938 42.632812 175.632812 46.960938 159.398438 50.585938 C 144.367188 53.816406 125.175781 56.097656 101.816406 56.097656 C 79.257812 56.097656 59.191406 53.816406 44.710938 50.742188 C 29.113281 46.960938 20.953125 42.871094 20.953125 37.519531 C 20.945312 35.304688 21.984375 33.414062 25.113281 31.214844 Z M 25.113281 31.214844 "/>
<path style=" stroke:none;fill-rule:nonzero;fill:rgb(15.686275%,19.607843%,30.588236%);fill-opacity:1;" d="M 63.015625 25.160156 C 67.015625 24.769531 71.894531 25.472656 74.214844 26.734375 C 75.894531 25.871094 76.457031 25 76.304688 23.976562 C 75.496094 21.214844 69.984375 20.039062 63.023438 20.511719 C 49.433594 21.6875 49.433594 27.671875 49.902344 30.351562 C 51.265625 37.199219 61.734375 41.769531 74.703125 40.585938 C 92.855469 39.007812 98.136719 27.519531 119.417969 25.625 C 129.894531 24.839844 136.519531 26.886719 137.238281 30.503906 C 137.878906 33.886719 132.6875 36.175781 126.367188 36.648438 C 117.648438 37.511719 114.054688 34.441406 113.328125 31.527344 C 106.855469 32.238281 105.816406 34.910156 106.136719 36.800781 C 106.855469 40.425781 114.6875 44.039062 128.128906 42.785156 C 143.328125 41.609375 148.449219 35.703125 147.167969 29.800781 C 145.566406 22.089844 133.894531 15.632812 112.9375 17.601562 C 86.0625 19.960938 86.222656 32.238281 67.910156 33.734375 C 60.390625 34.449219 56.238281 32.710938 55.519531 29.800781 C 55.015625 26.886719 58.695312 25.464844 63.015625 25.160156 Z M 63.015625 25.160156 "/>
<path style=" stroke:none;fill-rule:nonzero;fill:rgb(15.686275%,19.607843%,30.588236%);fill-opacity:1;" d="M 0.0703125 120.160156 C 0.6875 128.601562 4.984375 135.953125 11.359375 140.734375 L 11.433594 140.785156 C 18.390625 146.144531 25.902344 147.710938 34.464844 146.144531 C 37.742188 145.59375 41.425781 143.9375 44.785156 142.832031 C 37.742188 142.832031 31.832031 140.632812 25.902344 135.984375 C 19.550781 131.609375 15.152344 124.863281 14.007812 117.089844 L 13.984375 116.9375 C 12.390625 109.535156 13.984375 102.6875 18.230469 96.632812 C 19.191406 95.449219 20.230469 94.425781 21.351562 93.480469 C 23.761719 99.230469 26.3125 104.894531 29.199219 110.167969 C 35.679688 119.847656 42.152344 128.273438 48.632812 137.398438 C 51.441406 142.753906 53.273438 148.023438 54.550781 153.296875 C 58.839844 159.070312 65.007812 163.289062 72.167969 165.054688 L 72.390625 165.105469 C 81.585938 168.25 91.183594 169.671875 101.023438 169.121094 L 102.0625 169.121094 C 103.128906 169.167969 104.375 169.199219 105.632812 169.199219 C 114.910156 169.199219 123.832031 167.671875 132.144531 164.863281 L 131.574219 165.023438 C 138.65625 162.953125 144.558594 158.832031 148.800781 153.375 L 148.855469 153.296875 L 149.417969 153.296875 C 150.457031 148.023438 152.214844 142.742188 154.769531 137.398438 C 161.167969 128.191406 167.726562 119.847656 174.128906 110.167969 C 182.472656 95.289062 188.710938 77.992188 191.902344 59.664062 L 192.039062 58.6875 C 188.601562 63.40625 180.527344 67.585938 166.046875 70.808594 C 149.257812 74.664062 127.816406 77.183594 101.984375 77.183594 C 75.585938 77.183594 54.070312 74.511719 37.359375 70.886719 C 22.320312 67.113281 14.320312 62.9375 11.519531 58.609375 C 12.960938 68.289062 15.441406 77.65625 18.640625 86.550781 C 14.808594 88.910156 11.367188 91.824219 8.238281 95.761719 C 3.128906 101.855469 0.03125 109.734375 0.03125 118.328125 L 0.078125 120.246094 L 0.078125 120.160156 Z M 0.0703125 120.160156 "/>
<path style=" stroke:none;fill-rule:nonzero;fill:rgb(13.725491%,17.254902%,26.666668%);fill-opacity:1;" d="M 25.113281 31.214844 C 15.351562 34.910156 10.070312 38.0625 10.070312 42.785156 C 10.625 48.136719 19.34375 53.496094 37.183594 57.585938 C 52.824219 61.472656 72.496094 63.585938 96 63.855469 L 96 56.039062 C 75.808594 55.6875 57.929688 53.542969 44.703125 50.734375 C 29.105469 46.953125 20.945312 42.863281 20.945312 37.511719 C 20.945312 35.304688 21.984375 33.414062 25.113281 31.214844 Z M 25.113281 31.214844 "/>
<path style=" stroke:none;fill-rule:nonzero;fill:rgb(13.725491%,17.254902%,26.666668%);fill-opacity:1;" d="M 65.921875 20.40625 C 64.992188 20.40625 64.015625 20.441406 63.015625 20.511719 C 49.425781 21.6875 49.425781 27.671875 49.894531 30.351562 C 51.113281 36.480469 59.617188 40.769531 70.664062 40.769531 C 71.976562 40.769531 73.320312 40.703125 74.695312 40.585938 C 83.832031 39.792969 89.703125 36.488281 96 33.160156 L 96 21.34375 C 84.753906 25.871094 81.199219 32.648438 67.894531 33.734375 C 66.761719 33.839844 65.703125 33.894531 64.71875 33.894531 C 59.199219 33.894531 56.113281 32.273438 55.503906 29.800781 C 55.015625 26.886719 58.703125 25.472656 63.015625 25.160156 C 63.769531 25.089844 64.550781 25.046875 65.34375 25.046875 C 68.761719 25.046875 72.335938 25.703125 74.214844 26.726562 C 75.894531 25.863281 76.457031 24.992188 76.304688 23.96875 C 75.609375 21.617188 71.464844 20.40625 65.921875 20.40625 Z M 65.921875 20.40625 "/>
<path style=" stroke:none;fill-rule:nonzero;fill:rgb(13.725491%,17.254902%,26.666668%);fill-opacity:1;" d="M 11.503906 58.609375 C 12.945312 68.289062 15.425781 77.65625 18.625 86.550781 C 14.792969 88.910156 11.351562 91.824219 8.222656 95.761719 C 3.113281 101.855469 0.015625 109.734375 0.015625 118.328125 L 0.0625 120.246094 L 0.0625 120.160156 C 0.679688 128.601562 4.976562 135.953125 11.351562 140.734375 L 11.425781 140.785156 C 16.6875 144.832031 22.265625 146.71875 28.367188 146.71875 C 30.335938 146.71875 32.367188 146.519531 34.449219 146.136719 C 37.726562 145.585938 41.40625 143.929688 44.769531 142.824219 C 37.726562 142.824219 31.816406 140.625 25.886719 135.976562 C 19.535156 131.601562 15.136719 124.855469 13.992188 117.078125 L 13.96875 116.929688 C 12.375 109.527344 13.96875 102.679688 18.214844 96.625 C 19.175781 95.441406 20.214844 94.417969 21.335938 93.472656 C 23.742188 99.222656 26.296875 104.886719 29.183594 110.160156 C 35.664062 119.839844 42.136719 128.265625 48.617188 137.390625 C 51.425781 142.742188 53.257812 148.015625 54.535156 153.289062 C 58.824219 159.0625 64.992188 163.28125 72.152344 165.046875 L 72.375 165.097656 C 80 167.71875 87.910156 169.144531 96 169.230469 L 96 77.136719 C 72.3125 76.769531 52.777344 74.230469 37.34375 70.886719 C 22.304688 67.113281 14.304688 62.9375 11.503906 58.609375 Z M 11.503906 58.609375 "/>
</g>
</svg>
