<?xml version="1.0" encoding="UTF-8"?>
<svg xmlns="http://www.w3.org/2000/svg" xmlns:xlink="http://www.w3.org/1999/xlink" viewBox="0 0 192 192" width="192px" height="192px">
<g id="surface23824379">
<path style=" stroke:none;fill-rule:nonzero;fill:rgb(100%,100%,100%);fill-opacity:1;" d="M 191.046875 72.046875 C 184.863281 39.984375 152.175781 36 152.175781 36 L 5.785156 36 C 0.953125 36 0.351562 42.265625 0.351562 42.265625 C 0.351562 42.265625 -0.304688 99.734375 0.175781 135.03125 C 1.488281 154.054688 20.863281 156 20.863281 156 C 20.863281 156 87 155.816406 116.59375 155.617188 C 136.097656 152.273438 138.054688 135.472656 137.855469 126.3125 C 172.671875 128.199219 197.230469 104.097656 191.046875 72.046875 Z M 102.550781 99.59375 C 92.585938 111 70.464844 130.800781 70.464844 130.800781 C 70.464844 130.800781 69.496094 131.726562 67.984375 130.984375 L 67.121094 130.265625 C 63.574219 126.808594 40.183594 106.34375 34.847656 99.238281 C 29.175781 91.671875 26.519531 78.046875 34.121094 70.121094 C 41.726562 62.199219 58.160156 61.609375 69.023438 73.320312 C 69.023438 73.320312 81.542969 59.335938 96.769531 65.769531 C 112 72.199219 111.425781 89.390625 102.550781 99.59375 Z M 151.9375 103.34375 C 144.511719 104.257812 138.480469 103.558594 138.480469 103.558594 L 138.480469 58.984375 L 152.640625 58.984375 C 152.640625 58.984375 168.40625 63.3125 168.40625 79.6875 C 168.40625 94.695312 160.527344 100.617188 151.9375 103.34375 Z M 151.9375 103.34375 "/>
<path style=" stroke:none;fill-rule:nonzero;fill:rgb(100%,1.176471%,0%);fill-opacity:1;" d="M 49.070312 64.328125 C 43.144531 64.328125 37.671875 66.433594 34.121094 70.121094 C 26.519531 78.046875 29.175781 91.664062 34.847656 99.238281 C 40.175781 106.34375 63.574219 126.808594 67.121094 130.265625 L 67.992188 130.976562 C 68.425781 131.191406 68.816406 131.265625 69.152344 131.265625 C 69.199219 131.265625 69.238281 131.265625 69.28125 131.265625 L 69.28125 73.054688 C 69.113281 73.222656 69.023438 73.320312 69.023438 73.320312 C 63.230469 67.070312 55.847656 64.328125 49.070312 64.328125 Z M 49.070312 64.328125 "/>
<path style=" stroke:none;fill-rule:nonzero;fill:rgb(100%,100%,100%);fill-opacity:1;" d="M 69.273438 36 L 5.785156 36 C 0.953125 36 0.351562 42.265625 0.351562 42.265625 C 0.351562 42.265625 -0.304688 99.734375 0.175781 135.03125 C 1.488281 154.054688 20.863281 156 20.863281 156 C 20.863281 156 44.152344 155.9375 69.28125 155.839844 L 69.28125 131.265625 C 69.238281 131.265625 69.191406 131.265625 69.152344 131.265625 C 68.816406 131.265625 68.433594 131.183594 67.992188 130.976562 L 67.121094 130.265625 C 63.574219 126.808594 40.183594 106.34375 34.847656 99.238281 C 29.175781 91.671875 26.519531 78.046875 34.121094 70.121094 C 37.671875 66.425781 43.144531 64.328125 49.070312 64.328125 C 55.855469 64.328125 63.230469 67.070312 69.03125 73.320312 C 69.03125 73.320312 69.121094 73.222656 69.28125 73.054688 L 69.28125 36 Z M 69.273438 36 "/>
</g>
</svg>
